- 
http://www.Speed.Cd 
       
http://www.Speed.Cd       the fast  and The Hottest Private Tracker on the net

(((--Registration will be open on june every weekend--)))

Please Seed back to make the speed Faster!!!

------------------nfo--------------------------
-                                                                                                     
       
     
     
       
       
     
     
                                         
                                         
                EXVID                    
                                         
         
                                         
         Filled the Archives             
                                         
         
                                         
                With:                    
                                         
         
                                         
                                    
     E240                           
                                    
     SP               (C) 2009      
                                         
     
     
     
                                                                                  
                                                                                   
                    The.Storm.2009.DVDRip.XviD-EXViD                                
                                                                                   
                                                                                  
     
                                                                                               
EXViD aims to iNTERNAL those releases which have been lost in the archives.
EXViD aims to PRE non-internal releases which have poor sources and are likely skipped by others.
 
http://www.imdb.com/title/tt1230194/
Subtitles: NL, EN
Date: 2011.07

Director: Ben Sombogaart

Genres: Drama

Plot:
A fictional story within the historical context of the disastrous flood that engulfed the Dutch
coastal province of Zeeland in 1953. When their farmhouse is destroyed by the flood, teenage mother
Julia gets separated from her baby boy, whom she kept hidden in a box. She is saved from drowning
by a young air force lieutenant, who agrees to go help looking for Julia's little son. A
near-hopeless quest ensues.

Cast:
Sylvia Hoeks 	 ... 	 Julia 
Barry Atsma 	 ... 	 Aldo 
Dirk Roofthooft 	 ... 	 Vader Julia 
Monic Hendrickx 	 ... 	 Moeder Julia 
Elsa May Averill 	 ... 	 Emma 
Katja Herbers 	 ... 	 Krina 
Lottie Hellingman 	 ... 	 Stientje 
Bas Keijzer 	 ... 	 Guus 
Sanne den Hartogh 	 ... 	 Koos 
Evert de Jager 	 ... 	 Burgemeester Haverkamp 
Betty Schuurman 	 ... 	 Mevrouw Haverkamp 
Serge Price 	 ... 	 Felix 
Sarah Jonker 	 ... 	 Geesje 
Guus Dam 	 ... 	 Job 
Micha Hulshof 	 ... 	 Piloot Theo

Stats:
Format                           : AVI
Format/Info                      : Audio Video Interleave
File size                        : 695 MiB
Duration                         : 1h 32mn
Overall bit rate                 : 1 046 Kbps
Writing application              : Nandub v1.0rc2
Writing library                  : Nandub build 1852/release

Video
ID                               : 0
Format                           : MPEG-4 Visual
Format profile                   : Advanced Simple@L5
Format settings, BVOP            : 2
Format settings, QPel            : No
Format settings, GMC             : No warppoints
Format settings, Matrix          : Default (H.263)
Codec ID                         : XVID
Codec ID/Hint                    : XviD
Duration                         : 1h 32mn
Bit rate                         : 911 Kbps
Width                            : 608 pixels
Height                           : 256 pixels
Display aspect ratio             : 2.40:1
Frame rate                       : 25.000 fps
Color space                      : YUV
Chroma subsampling               : 4:2:0
Bit depth                        : 8 bits
Scan type                        : Progressive
Compression mode                 : Lossy
Bits/(Pixel*Frame)               : 0.234
Stream size                      : 605 MiB (87%)
Writing library                  : XviD 64

Audio
ID                               : 1
Format                           : MPEG Audio
Format version                   : Version 1
Format profile                   : Layer 3
Mode                             : Joint stereo
Mode extension                   : MS Stereo
Codec ID                         : 55
Codec ID/Hint                    : MP3
Duration                         : 1h 32mn
Bit rate mode                    : Variable
Bit rate                         : 128 Kbps
Channel(s)                       : 2 channels
Sampling rate                    : 48.0 KHz
Compression mode                 : Lossy
Stream size                      : 81.3 MiB (12%)
Alignment                        : Aligned on interleaves
Interleave, duration             : 24 ms (0.60 video frame)
Interleave, preload duration     : 144 ms
Writing library                  : LAME3.98r
Encoding settings                : -m j -V 4 -q 3 -lowpass 17 --abr 128




Release notes:
enjoy!

Looking for:
75TB+ Archives
DUTCH/FLEMiSH Archives
                                                                                                    
Greets: CRBS EPiSODE FiCO FLS iLS KLASSiGER LiPSYNC MADE NODLABS RUNNER SPRiNTER      
   

                                                                    ASCII DONE BY XX^NFO 2oo9